<?xml version="1.0" standalone="no"?>
<!DOCTYPE svg PUBLIC "-//W3C//DTD SVG 20010904//EN"
 "http://www.w3.org/TR/2001/REC-SVG-20010904/DTD/svg10.dtd">
<svg version="1.0" xmlns="http://www.w3.org/2000/svg"
 width="611.000000pt" height="144.000000pt" viewBox="0 0 611.000000 144.000000"
 preserveAspectRatio="xMidYMid meet">
<metadata>
Created by potrace 1.16, written by Peter Selinger 2001-2019
</metadata>
<g transform="translate(0.000000,144.000000) scale(0.100000,-0.100000)"
fill="#000000" stroke="none">
<path d="M510 1096 c0 -44 -10 -56 -46 -56 l-34 0 0 -74 0 -75 -37 -3 -38 -3
0 -65 c0 -63 1 -65 27 -68 23 -3 28 1 33 25 11 50 14 53 43 53 25 0 63 -25 55
-37 -2 -1 -3 -12 -3 -24 0 -16 5 -20 28 -17 22 2 28 9 32 38 5 37 22 47 65 36
18 -5 25 -14 27 -39 2 -27 7 -32 28 -32 21 0 26 5 28 32 2 25 9 34 27 39 40
10 63 -4 67 -39 2 -27 8 -33 31 -35 l27 -3 0 70 0 71 -35 0 -35 0 0 74 0 75
-37 3 c-36 3 -38 5 -41 41 -3 33 -6 37 -32 37 -26 0 -29 -4 -32 -37 -3 -37 -4
-38 -43 -38 -38 0 -40 2 -45 35 -4 29 -10 36 -32 38 -24 3 -28 0 -28 -22z"/>
<path d="M890 1010 l0 -30 150 0 150 0 0 -275 0 -275 -347 2 -348 3 -3 113 -3
112 -30 0 -30 0 3 -147 3 -148 390 -3 c215 -1 400 0 413 3 l22 5 0 335 0 335
-185 0 -185 0 0 -30z"/>
<path d="M1502 968 c-9 -9 -12 -75 -12 -234 0 -266 -6 -254 127 -254 127 0
123 -8 123 254 0 182 -2 217 -16 230 -20 20 -203 23 -222 4z m146 -235 l-3
-168 -35 0 -35 0 -3 155 c-1 85 0 160 2 167 3 7 21 13 41 13 l35 0 -2 -167z"/>
<path d="M1798 973 c-4 -7 -2 -445 1 -481 1 -9 14 -12 44 -10 l42 3 2 55 c1
30 2 61 2 68 1 8 20 12 61 12 95 0 100 9 100 178 0 186 3 182 -140 182 -60 0
-110 -3 -112 -7z m150 -71 c9 -6 12 -35 10 -108 l-3 -99 -29 -3 c-16 -2 -32 1
-36 7 -5 9 -6 160 -1 193 1 5 16 12 41 17 3 0 11 -3 18 -7z"/>
<path d="M2101 949 c-16 -45 -15 -47 22 -51 l32 -3 3 -207 2 -208 45 0 45 0 2
208 3 207 29 3 c26 3 28 6 22 34 -3 17 -6 34 -6 39 0 5 -42 9 -94 9 l-94 0
-11 -31z"/>
<path d="M2360 729 l0 -250 43 3 42 3 3 248 2 247 -45 0 -45 0 0 -251z"/>
<path d="M2502 733 l3 -248 42 -3 42 -3 3 68 3 68 65 5 c36 3 71 9 78 13 17
11 17 318 0 335 -8 8 -51 12 -125 12 l-114 0 3 -247z m166 58 l-3 -96 -35 0
-35 0 0 100 c0 97 0 99 25 105 44 12 51 -4 48 -109z"/>
<path d="M2810 729 l0 -250 43 3 42 3 3 78 c4 99 18 98 51 -6 l23 -77 44 0
c52 0 52 2 23 89 l-21 62 21 20 c19 18 21 30 21 155 0 74 -5 144 -10 155 -10
17 -22 19 -125 19 l-115 0 0 -251z"/>
<path d="M3120 729 l0 -250 43 3 42 3 3 248 2 247 -45 0 -45 0 0 -251z"/>
<path d="M3263 733 l2 -248 43 -3 42 -3 0 110 c0 65 4 111 10 111 5 0 19 -31
31 -70 11 -38 25 -70 29 -70 4 0 18 32 31 70 12 39 26 70 30 70 5 0 10 -48 11
-107 l3 -108 43 -3 42 -3 0 250 0 251 -50 0 c-55 0 -46 15 -84 -133 -23 -90
-29 -90 -52 0 -38 148 -29 133 -84 133 l-49 0 2 -247z"/>
<path d="M3632 733 l3 -248 89 -3 c97 -3 106 1 106 51 0 19 -5 27 -17 28 -86
4 -78 -2 -81 67 l-3 62 40 0 c47 0 53 7 42 46 -6 25 -12 29 -42 29 l-34 0 0
65 0 65 53 3 c43 3 53 6 48 18 -3 9 -6 27 -6 40 0 24 -1 24 -100 24 l-100 0 2
-247z"/>
<path d="M3992 968 c-9 -9 -12 -74 -12 -230 0 -273 -7 -260 143 -256 l102 3 3
123 c3 141 -3 160 -50 158 l-33 -2 -3 -79 c-3 -115 -7 -127 -40 -123 l-27 3 0
165 0 165 58 3 c48 2 58 6 53 18 -3 9 -6 27 -6 40 0 24 -2 24 -88 24 -55 0
-92 -4 -100 -12z"/>
<path d="M4280 730 l0 -250 85 0 c73 0 86 3 95 19 16 30 12 61 -7 62 -30 3
-57 5 -70 7 -10 2 -13 51 -13 207 l0 205 -45 0 -45 0 0 -250z"/>
<path d="M4536 964 c-14 -13 -16 -47 -16 -217 0 -111 3 -212 6 -223 8 -31 46
-44 129 -44 118 0 115 -6 115 258 0 156 -3 221 -12 230 -19 19 -202 16 -222
-4z m137 -63 c4 -1 7 -78 7 -172 l0 -170 -32 3 -33 3 -3 164 c-3 169 0 183 37
176 9 -2 19 -4 24 -4z"/>
<path d="M4830 730 l0 -250 103 0 c144 0 147 3 147 129 0 59 -4 101 -11 108
-9 9 -9 19 1 42 16 39 10 182 -9 204 -11 14 -33 17 -122 17 l-109 0 0 -250z"/>
<path d="M5205 958 c-2 -13 -16 -88 -30 -168 -15 -80 -33 -178 -41 -219 -8
-40 -14 -77 -14 -83 0 -5 19 -8 42 -6 35 2 43 7 48 27 12 54 83 55 95 1 6 -27
10 -30 46 -30 33 0 39 3 39 21 0 11 -18 120 -40 241 -22 122 -40 225 -40 230
0 4 -22 8 -50 8 -43 0 -50 -3 -55 -22z"/>
<path d="M5442 733 l3 -248 87 -3 87 -3 7 36 c8 43 4 48 -38 47 -57 -1 -58 2
-58 219 l0 199 -45 0 -45 0 2 -247z"/>
</g>
</svg>
